<?xml version="1.0" encoding="UTF-8" standalone="no"?>
<!-- Created with Inkscape (http://www.inkscape.org/) -->

<svg
   xmlns:dc="http://purl.org/dc/elements/1.1/"
   xmlns:cc="http://creativecommons.org/ns#"
   xmlns:rdf="http://www.w3.org/1999/02/22-rdf-syntax-ns#"
   xmlns:svg="http://www.w3.org/2000/svg"
   xmlns="http://www.w3.org/2000/svg"
   xmlns:sodipodi="http://sodipodi.sourceforge.net/DTD/sodipodi-0.dtd"
   xmlns:inkscape="http://www.inkscape.org/namespaces/inkscape"
   width="246.78719"
   height="145.45862"
   id="svg2"
   sodipodi:version="0.32"
   inkscape:version="0.48.2 r9819"
   sodipodi:docname="explicit.pdf"
   inkscape:output_extension="org.inkscape.output.svg.inkscape"
   version="1.1">
  <defs
     id="defs4">
    <marker
       inkscape:stockid="Arrow1Mend"
       orient="auto"
       refY="0"
       refX="0"
       id="Arrow1Mend"
       style="overflow:visible">
      <path
         id="path3207"
         d="M 0,0 5,-5 -12.5,0 5,5 0,0 z"
         style="fill-rule:evenodd;stroke:#000000;stroke-width:1pt;marker-start:none"
         transform="matrix(-0.4,0,0,-0.4,-4,0)"
         inkscape:connector-curvature="0" />
    </marker>
    <marker
       inkscape:stockid="Arrow1Mstart"
       orient="auto"
       refY="0"
       refX="0"
       id="Arrow1Mstart"
       style="overflow:visible">
      <path
         id="path3204"
         d="M 0,0 5,-5 -12.5,0 5,5 0,0 z"
         style="fill-rule:evenodd;stroke:#000000;stroke-width:1pt;marker-start:none"
         transform="matrix(0.4,0,0,0.4,4,0)"
         inkscape:connector-curvature="0" />
    </marker>
    <marker
       inkscape:stockid="Arrow1Lend"
       orient="auto"
       refY="0"
       refX="0"
       id="Arrow1Lend"
       style="overflow:visible">
      <path
         id="path3201"
         d="M 0,0 5,-5 -12.5,0 5,5 0,0 z"
         style="fill-rule:evenodd;stroke:#000000;stroke-width:1pt;marker-start:none"
         transform="matrix(-0.8,0,0,-0.8,-10,0)"
         inkscape:connector-curvature="0" />
    </marker>
    <inkscape:perspective
       sodipodi:type="inkscape:persp3d"
       inkscape:vp_x="0 : 526.18109 : 1"
       inkscape:vp_y="0 : 1000 : 0"
       inkscape:vp_z="744.09448 : 526.18109 : 1"
       inkscape:persp3d-origin="372.04724 : 350.78739 : 1"
       id="perspective10" />
    <marker
       inkscape:stockid="Arrow1Mstart"
       orient="auto"
       refY="0"
       refX="0"
       id="Arrow1Mstart-1"
       style="overflow:visible">
      <path
         inkscape:connector-curvature="0"
         id="path3204-7"
         d="M 0,0 5,-5 -12.5,0 5,5 0,0 z"
         style="fill-rule:evenodd;stroke:#000000;stroke-width:1pt;marker-start:none"
         transform="matrix(0.4,0,0,0.4,4,0)" />
    </marker>
    <marker
       inkscape:stockid="Arrow1Mend"
       orient="auto"
       refY="0"
       refX="0"
       id="Arrow1Mend-4"
       style="overflow:visible">
      <path
         inkscape:connector-curvature="0"
         id="path3207-0"
         d="M 0,0 5,-5 -12.5,0 5,5 0,0 z"
         style="fill-rule:evenodd;stroke:#000000;stroke-width:1pt;marker-start:none"
         transform="matrix(-0.4,0,0,-0.4,-4,0)" />
    </marker>
  </defs>
  <sodipodi:namedview
     id="base"
     pagecolor="#ffffff"
     bordercolor="#666666"
     borderopacity="1.0"
     gridtolerance="10000"
     guidetolerance="10"
     objecttolerance="10"
     inkscape:pageopacity="0.0"
     inkscape:pageshadow="2"
     inkscape:zoom="0.87349535"
     inkscape:cx="641.42694"
     inkscape:cy="-135.19893"
     inkscape:document-units="px"
     inkscape:current-layer="layer1"
     showgrid="false"
     inkscape:window-width="1280"
     inkscape:window-height="756"
     inkscape:window-x="43"
     inkscape:window-y="0"
     inkscape:window-maximized="0"
     fit-margin-top="0"
     fit-margin-left="0"
     fit-margin-right="0"
     fit-margin-bottom="0" />
  <metadata
     id="metadata7">
    <rdf:RDF>
      <cc:Work
         rdf:about="">
        <dc:format>image/svg+xml</dc:format>
        <dc:type
           rdf:resource="http://purl.org/dc/dcmitype/StillImage" />
        <dc:title></dc:title>
      </cc:Work>
    </rdf:RDF>
  </metadata>
  <g
     inkscape:label="Layer 1"
     inkscape:groupmode="layer"
     id="layer1"
     transform="translate(-60.398754,-159.12933)">
    <path
       style="fill:none;stroke:#000000;stroke-width:4.375;stroke-linecap:butt;stroke-linejoin:miter;stroke-miterlimit:4;stroke-opacity:1;stroke-dasharray:none"
       d="m 186.60659,219.50145 0,64.68265"
       id="path5035"
       inkscape:connector-curvature="0" />
    <path
       style="fill:none;stroke:#000000;stroke-width:4.375;stroke-linecap:butt;stroke-linejoin:miter;stroke-miterlimit:4;stroke-opacity:1;stroke-dasharray:none"
       d="m 116.19981,283.61169 140.24115,-0.57241"
       id="path5037"
       inkscape:connector-curvature="0" />
    <rect
       style="fill:none;stroke:#000000;stroke-width:1.4173193;stroke-miterlimit:4;stroke-opacity:1;stroke-dasharray:2.83463858, 1.41731929;stroke-dashoffset:0"
       id="rect5033"
       width="138.03419"
       height="63.0481"
       x="117.87573"
       y="220.03252" />
    <path
       sodipodi:type="arc"
       style="fill:#ffffff;fill-opacity:1;stroke:#000000;stroke-width:3.24655414;stroke-miterlimit:4;stroke-opacity:1;stroke-dasharray:none;stroke-dashoffset:0"
       id="path2385"
       sodipodi:cx="268.0433"
       sodipodi:cy="229.95663"
       sodipodi:rx="5.6857667"
       sodipodi:ry="7.7163978"
       d="m 273.72907,229.95663 c 0,4.26165 -2.5456,7.7164 -5.68577,7.7164 -3.14016,0 -5.68576,-3.45475 -5.68576,-7.7164 0,-4.26164 2.5456,-7.71639 5.68576,-7.71639 3.14017,0 5.68577,3.45475 5.68577,7.71639 z"
       transform="matrix(1.3007629,0,0,0.9584569,-231.76968,-1.3770991)" />
    <path
       sodipodi:type="arc"
       style="fill:#00ff00;fill-opacity:1;stroke:#000000;stroke-width:3.24655414;stroke-miterlimit:4;stroke-opacity:1;stroke-dasharray:none;stroke-dashoffset:0"
       id="path2387"
       sodipodi:cx="268.0433"
       sodipodi:cy="229.95663"
       sodipodi:rx="5.6857667"
       sodipodi:ry="7.7163978"
       d="m 273.72907,229.95663 c 0,4.26165 -2.5456,7.7164 -5.68577,7.7164 -3.14016,0 -5.68576,-3.45475 -5.68576,-7.7164 0,-4.26164 2.5456,-7.71639 5.68576,-7.71639 3.14017,0 5.68577,3.45475 5.68577,7.71639 z"
       transform="matrix(1.3007629,0,0,0.9584569,-161.50986,-0.9709822)" />
    <path
       sodipodi:type="arc"
       style="fill:#ffffff;fill-opacity:1;stroke:#000000;stroke-width:3.24655414;stroke-miterlimit:4;stroke-opacity:1;stroke-dasharray:none;stroke-dashoffset:0"
       id="path2389"
       sodipodi:cx="268.0433"
       sodipodi:cy="229.95663"
       sodipodi:rx="5.6857667"
       sodipodi:ry="7.7163978"
       d="m 273.72907,229.95663 c 0,4.26165 -2.5456,7.7164 -5.68577,7.7164 -3.14016,0 -5.68576,-3.45475 -5.68576,-7.7164 0,-4.26164 2.5456,-7.71639 5.68576,-7.71639 3.14017,0 5.68577,3.45475 5.68577,7.71639 z"
       transform="matrix(1.3007629,0,0,0.9584569,-92.468407,-0.970982)" />
    <path
       sodipodi:type="arc"
       style="fill:#ff0000;fill-opacity:1;stroke:#000000;stroke-width:3.24655414;stroke-miterlimit:4;stroke-opacity:1;stroke-dasharray:none;stroke-dashoffset:0"
       id="path3171"
       sodipodi:cx="268.0433"
       sodipodi:cy="229.95663"
       sodipodi:rx="5.6857667"
       sodipodi:ry="7.7163978"
       d="m 273.72907,229.95663 c 0,4.26165 -2.5456,7.7164 -5.68577,7.7164 -3.14016,0 -5.68576,-3.45475 -5.68576,-7.7164 0,-4.26164 2.5456,-7.71639 5.68576,-7.71639 3.14017,0 5.68577,3.45475 5.68577,7.71639 z"
       transform="matrix(1.3007629,0,0,0.9584569,-231.76968,63.806151)" />
    <path
       sodipodi:type="arc"
       style="fill:#ff0000;fill-opacity:1;stroke:#000000;stroke-width:3.24655414;stroke-miterlimit:4;stroke-opacity:1;stroke-dasharray:none;stroke-dashoffset:0"
       id="path3173"
       sodipodi:cx="268.0433"
       sodipodi:cy="229.95663"
       sodipodi:rx="5.6857667"
       sodipodi:ry="7.7163978"
       d="m 273.72907,229.95663 c 0,4.26165 -2.5456,7.7164 -5.68577,7.7164 -3.14016,0 -5.68576,-3.45475 -5.68576,-7.7164 0,-4.26164 2.5456,-7.71639 5.68576,-7.71639 3.14017,0 5.68577,3.45475 5.68577,7.71639 z"
       transform="matrix(1.3007629,0,0,0.9584569,-161.50986,64.212268)" />
    <path
       sodipodi:type="arc"
       style="fill:#ff0000;fill-opacity:1;stroke:#000000;stroke-width:3.24655414;stroke-miterlimit:4;stroke-opacity:1;stroke-dasharray:none;stroke-dashoffset:0"
       id="path3175"
       sodipodi:cx="268.0433"
       sodipodi:cy="229.95663"
       sodipodi:rx="5.6857667"
       sodipodi:ry="7.7163978"
       d="m 273.72907,229.95663 c 0,4.26165 -2.5456,7.7164 -5.68577,7.7164 -3.14016,0 -5.68576,-3.45475 -5.68576,-7.7164 0,-4.26164 2.5456,-7.71639 5.68576,-7.71639 3.14017,0 5.68577,3.45475 5.68577,7.71639 z"
       transform="matrix(1.3007629,0,0,0.9584569,-92.468409,64.212268)" />
    <path
       style="fill:none;stroke:#000000;stroke-width:0.77933282px;stroke-linecap:butt;stroke-linejoin:miter;stroke-opacity:1;marker-start:url(#Arrow1Mstart);marker-end:url(#Arrow1Mend)"
       d="m 97.003881,175.46187 0,126.1155 196.500679,-10e-6"
       id="path3193"
       sodipodi:nodetypes="ccc"
       inkscape:connector-curvature="0" />
    <text
       xml:space="preserve"
       style="font-size:11px;font-style:normal;font-weight:normal;fill:#000000;fill-opacity:1;stroke:none;font-family:Bitstream Vera Sans"
       x="82.258301"
       y="167.48676"
       id="text5025"><tspan
         sodipodi:role="line"
         id="tspan5027"
         x="82.258301"
         y="167.48676">time</tspan></text>
    <text
       xml:space="preserve"
       style="font-size:11px;font-style:normal;font-weight:normal;fill:#000000;fill-opacity:1;stroke:none;font-family:Bitstream Vera Sans"
       x="301.03604"
       y="304.58795"
       id="text5029"><tspan
         sodipodi:role="line"
         id="tspan5031"
         x="301.03604"
         y="304.58795">x</tspan></text>
    <text
       xml:space="preserve"
       style="font-size:11px;font-style:normal;font-weight:normal;fill:#000000;fill-opacity:1;stroke:none;font-family:Bitstream Vera Sans"
       x="62.965405"
       y="290.48065"
       id="text5039"><tspan
         sodipodi:role="line"
         id="tspan5041"
         x="62.965405"
         y="290.48065">t=k</tspan></text>
    <text
       xml:space="preserve"
       style="font-size:11px;font-style:normal;font-weight:normal;fill:#000000;fill-opacity:1;stroke:none;font-family:Bitstream Vera Sans"
       x="60.103344"
       y="224.08075"
       id="text5043"><tspan
         sodipodi:role="line"
         id="tspan5045"
         x="60.103344"
         y="224.08075">t=k+1</tspan></text>
  </g>
</svg>
