<?xml version="1.0" encoding="UTF-8" standalone="no"?>
<!-- Created with Inkscape (http://www.inkscape.org/) -->

<svg
   xmlns:dc="http://purl.org/dc/elements/1.1/"
   xmlns:cc="http://creativecommons.org/ns#"
   xmlns:rdf="http://www.w3.org/1999/02/22-rdf-syntax-ns#"
   xmlns:svg="http://www.w3.org/2000/svg"
   xmlns="http://www.w3.org/2000/svg"
   xmlns:sodipodi="http://sodipodi.sourceforge.net/DTD/sodipodi-0.dtd"
   xmlns:inkscape="http://www.inkscape.org/namespaces/inkscape"
   width="101.48254mm"
   height="108.78451mm"
   viewBox="0 0 359.58379 385.45692"
   id="svg2"
   version="1.1"
   inkscape:version="0.91 r13725"
   sodipodi:docname="tankProblem.svg">
  <defs
     id="defs4">
    <marker
       inkscape:isstock="true"
       style="overflow:visible"
       id="marker6024"
       refX="0"
       refY="0"
       orient="auto"
       inkscape:stockid="Arrow1Lend">
      <path
         transform="matrix(-0.8,0,0,-0.8,-10,0)"
         style="fill:#0024ff;fill-opacity:1;fill-rule:evenodd;stroke:#0024ff;stroke-width:1pt;stroke-opacity:1"
         d="M 0,0 5,-5 -12.5,0 5,5 0,0 Z"
         id="path6026"
         inkscape:connector-curvature="0" />
    </marker>
    <marker
       inkscape:isstock="true"
       style="overflow:visible"
       id="marker4518"
       refX="0"
       refY="0"
       orient="auto"
       inkscape:stockid="Arrow1Lend">
      <path
         transform="matrix(-0.8,0,0,-0.8,-10,0)"
         style="fill:#000000;fill-opacity:1;fill-rule:evenodd;stroke:#000000;stroke-width:1pt;stroke-opacity:1"
         d="M 0,0 5,-5 -12.5,0 5,5 0,0 Z"
         id="path4520"
         inkscape:connector-curvature="0" />
    </marker>
    <marker
       inkscape:isstock="true"
       style="overflow:visible"
       id="marker4490"
       refX="0"
       refY="0"
       orient="auto"
       inkscape:stockid="Arrow1Lstart">
      <path
         transform="matrix(0.8,0,0,0.8,10,0)"
         style="fill:#000000;fill-opacity:1;fill-rule:evenodd;stroke:#000000;stroke-width:1pt;stroke-opacity:1"
         d="M 0,0 5,-5 -12.5,0 5,5 0,0 Z"
         id="path4492"
         inkscape:connector-curvature="0" />
    </marker>
    <marker
       inkscape:stockid="Arrow1Lstart"
       orient="auto"
       refY="0"
       refX="0"
       id="Arrow1Lstart"
       style="overflow:visible"
       inkscape:isstock="true"
       inkscape:collect="always">
      <path
         id="path4152"
         d="M 0,0 5,-5 -12.5,0 5,5 0,0 Z"
         style="fill:#000000;fill-opacity:1;fill-rule:evenodd;stroke:#000000;stroke-width:1pt;stroke-opacity:1"
         transform="matrix(0.8,0,0,0.8,10,0)"
         inkscape:connector-curvature="0" />
    </marker>
    <marker
       inkscape:stockid="Arrow1Lend"
       orient="auto"
       refY="0"
       refX="0"
       id="Arrow1Lend"
       style="overflow:visible"
       inkscape:isstock="true"
       inkscape:collect="always">
      <path
         id="path4155"
         d="M 0,0 5,-5 -12.5,0 5,5 0,0 Z"
         style="fill:#000000;fill-opacity:1;fill-rule:evenodd;stroke:#000000;stroke-width:1pt;stroke-opacity:1"
         transform="matrix(-0.8,0,0,-0.8,-10,0)"
         inkscape:connector-curvature="0" />
    </marker>
  </defs>
  <sodipodi:namedview
     id="base"
     pagecolor="#ffffff"
     bordercolor="#666666"
     borderopacity="1.0"
     inkscape:pageopacity="0.0"
     inkscape:pageshadow="2"
     inkscape:zoom="0.98994949"
     inkscape:cx="-72.845845"
     inkscape:cy="136.59645"
     inkscape:document-units="px"
     inkscape:current-layer="layer1"
     showgrid="false"
     inkscape:window-width="1535"
     inkscape:window-height="876"
     inkscape:window-x="65"
     inkscape:window-y="24"
     inkscape:window-maximized="1"
     fit-margin-top="0"
     fit-margin-left="0"
     fit-margin-right="0"
     fit-margin-bottom="0" />
  <metadata
     id="metadata7">
    <rdf:RDF>
      <cc:Work
         rdf:about="">
        <dc:format>image/svg+xml</dc:format>
        <dc:type
           rdf:resource="http://purl.org/dc/dcmitype/StillImage" />
        <dc:title></dc:title>
      </cc:Work>
    </rdf:RDF>
  </metadata>
  <g
     inkscape:label="Layer 1"
     inkscape:groupmode="layer"
     id="layer1"
     transform="translate(-172.24624,-242.24015)">
    <ellipse
       style="fill:none;fill-opacity:1;stroke:#000000;stroke-width:4;stroke-miterlimit:4;stroke-dasharray:none;stroke-dashoffset:0;stroke-opacity:1"
       id="path4136"
       cx="351.53308"
       cy="270.50412"
       rx="175.76654"
       ry="26.263966" />
    <path
       style="fill:none;fill-rule:evenodd;stroke:#000000;stroke-width:3;stroke-linecap:butt;stroke-linejoin:miter;stroke-miterlimit:4;stroke-dasharray:none;stroke-opacity:1"
       d="m 173.74624,269.49398 0,260.61936 c 141.0519,34.4797 224.6857,44.82495 354.56355,-3.03046 l 2.0203,-255.56859"
       id="path4138"
       inkscape:connector-curvature="0"
       sodipodi:nodetypes="cccc" />
    <path
       style="fill:none;fill-rule:evenodd;stroke:#0013ff;stroke-width:6;stroke-linecap:butt;stroke-linejoin:miter;stroke-miterlimit:4;stroke-dasharray:none;stroke-opacity:1"
       d="m 173.74624,361.41786 c 6.06091,0 12.12183,0 18.18274,0 1.01016,0 2.03405,-0.16606 3.03046,0 1.05031,0.17505 2.00663,0.71763 3.03046,1.01016 1.3349,0.3814 2.69374,0.67343 4.04061,1.01015 1.34687,0.33672 2.66624,0.81381 4.04061,1.01015 1,0.14286 2.03405,-0.16607 3.03046,0 8.86729,1.47788 -1.54412,0.37159 5.05076,2.02031 0.65333,0.16333 1.34687,0 2.0203,0 0.67344,0 1.34687,0 2.02031,0 3.36717,0 6.73435,0 10.10153,0 1.34687,0 2.69374,0 4.04061,0 0.67343,0 1.35994,-0.13208 2.0203,0 1.04412,0.20882 1.97637,0.85956 3.03046,1.01015 1.33333,0.19048 2.69374,0 4.04061,0 2.35702,0 4.71404,0 7.07107,0 2.41343,0 3.84493,0.31944 6.06091,-1.01015 0.81666,-0.49 1.34687,-1.34687 2.02031,-2.02031 2.3883,-2.3883 4.33309,-4.04738 6.06091,-7.07107 0.52829,-0.9245 0.53396,-2.07807 1.01015,-3.03045 0.54295,-1.08589 1.34687,-2.02031 2.02031,-3.03046 0.67343,-1.01015 1.29187,-2.05922 2.0203,-3.03046 0.28572,-0.38095 0.74601,-0.61394 1.01016,-1.01015 0.41764,-0.62647 0.47775,-1.48791 1.01015,-2.02031 0.23809,-0.23809 0.67343,0 1.01015,0 1.01015,0 2.02031,0 3.03046,0 6.04215,0 5.05559,0.50846 10.10153,4.04061 1.98918,1.39243 4.18166,2.50305 6.06091,4.04061 1.84276,1.50771 3.10021,3.68538 5.05076,5.05077 1.4855,1.03984 3.36718,1.34687 5.05077,2.0203 2.89659,1.15864 5.92787,2.63502 9.09137,3.03046 1.67059,0.20882 3.36717,0 5.05076,0 4.04061,0 8.08122,0 12.12183,0 5.05076,0 10.10153,0 15.15229,0 1.01015,0 2.02031,0 3.03046,0 0.33672,0 0.92848,0.32666 1.01015,0 0.32666,-1.30666 0,-2.69374 0,-4.04061 0,-0.67344 0,-1.34687 0,-2.02031 0,-1.01015 -0.245,-2.05046 0,-3.03045 0.11549,-0.46198 0.74601,-0.61394 1.01015,-1.01016 0.41765,-0.62647 0.77206,-1.30602 1.01016,-2.0203 0.10648,-0.31944 -0.30117,-0.85957 0,-1.01015 0.15804,-0.079 4.76835,0 5.05076,0 2.0203,0 4.04061,0 6.06091,0 1.01016,0 2.07215,-0.31944 3.03046,0 1.15175,0.38391 1.91457,1.54206 3.03046,2.0203 2.75195,1.17941 4.31912,0.8409 7.07107,2.02031 1.38409,0.59318 2.5927,1.60661 4.04061,2.0203 0.97128,0.27751 2.0203,0 3.03045,0 1.01016,0 2.02031,0 3.03046,0 4.37733,0 8.75466,0 13.13199,0 2.35702,0 4.71404,0 7.07106,0 0.33672,0 0.77206,0.2381 1.01016,0 0.47619,-0.47619 -0.60234,-1.71913 0,-2.0203 0.60233,-0.30117 1.34687,0 2.0203,0 1.68359,0 3.36718,0 5.05076,0 17.37727,0 -5.32792,0.33213 12.12183,-1.01016 2.35008,-0.18077 4.72219,0.19574 7.07107,0 1.711,-0.14258 3.36718,-0.67343 5.05076,-1.01015 1.68359,-0.33672 3.37472,-0.6377 5.05077,-1.01015 1.35526,-0.30117 2.66624,-0.81382 4.04061,-1.01015 1,-0.14286 2.0203,0 3.03046,0 0.67343,0 1.41796,0.30117 2.0203,0 0.30117,-0.15059 -0.2381,-0.77206 0,-1.01016 0.086,-0.086 2.52906,-0.16713 3.03046,0 0.71428,0.2381 1.34687,0.67344 2.0203,1.01016 1.79583,0.89791 2.97035,1.60422 5.05077,2.0203 0.66035,0.13207 1.34687,0 2.0203,0 2.35702,0 4.71405,0 7.07107,0 0.58205,0 4.68259,0.18409 5.05076,0 4.20401,-2.10201 -1.07989,0.0697 1.01015,-2.0203 0.0406,-0.0407 3.66965,0 4.04061,0 2.44626,0 2.96553,1.49899 5.05077,2.0203 0.65332,0.16333 1.34687,0 2.0203,0 0.67344,0 1.34687,0 2.02031,0 0.56382,0 4.58835,0.15414 5.05076,0 2.62131,-0.87377 -0.50873,-4.7964 2.0203,-6.06091 0.30117,-0.15059 0.67344,0 1.01016,0 0.33671,0 0.67343,0 1.01015,0 1.68359,0 3.36717,0 5.05076,0 2.69374,0 5.38748,0 8.08122,0 0.66378,0 2.46053,-0.18998 3.03046,0 7.31696,2.43898 -1.59261,-0.29124 3.03046,2.0203 0.30117,0.15059 0.70898,-0.15058 1.01015,0 0.42592,0.21296 0.58424,0.79719 1.01015,1.01015 0.30743,0.15372 2.57553,0 3.03046,0 2.02031,0 4.04061,0 6.06092,0"
       id="path4140"
       inkscape:connector-curvature="0" />
    <text
       xml:space="preserve"
       style="font-style:normal;font-weight:normal;font-size:40px;line-height:125%;font-family:sans-serif;letter-spacing:0px;word-spacing:0px;fill:#000000;fill-opacity:1;stroke:none;stroke-width:1px;stroke-linecap:butt;stroke-linejoin:miter;stroke-opacity:1"
       x="218.19295"
       y="445.26053"
       id="text4142"
       sodipodi:linespacing="125%"><tspan
         sodipodi:role="line"
         id="tspan4144"
         x="218.19295"
         y="445.26053">y(t)</tspan></text>
    <path
       style="fill:none;fill-rule:evenodd;stroke:#000000;stroke-width:1px;stroke-linecap:butt;stroke-linejoin:miter;stroke-opacity:1;marker-start:url(#Arrow1Lstart);marker-end:url(#Arrow1Lend)"
       d="m 196.97975,368.48893 0,165.66502"
       id="path4146"
       inkscape:connector-curvature="0" />
    <path
       style="fill:none;fill-rule:evenodd;stroke:#000000;stroke-width:4;stroke-linecap:butt;stroke-linejoin:miter;stroke-miterlimit:4;stroke-dasharray:none;stroke-opacity:1"
       d="m 309.10668,536.17425 0,56.56855"
       id="path4472"
       inkscape:connector-curvature="0" />
    <path
       inkscape:connector-curvature="0"
       id="path4474"
       d="m 393.95949,536.17425 0,56.56855"
       style="fill:none;fill-rule:evenodd;stroke:#000000;stroke-width:4;stroke-linecap:butt;stroke-linejoin:miter;stroke-miterlimit:4;stroke-dasharray:none;stroke-opacity:1" />
    <path
       inkscape:connector-curvature="0"
       id="path4488"
       d="m 391.93919,577.59051 -79.80205,1.01015"
       style="fill:none;fill-rule:evenodd;stroke:#000000;stroke-width:1px;stroke-linecap:butt;stroke-linejoin:miter;stroke-opacity:1;marker-start:url(#marker4490);marker-end:url(#marker4518)"
       sodipodi:nodetypes="cc" />
    <path
       style="fill:none;fill-rule:evenodd;stroke:#0024ff;stroke-width:2;stroke-linecap:butt;stroke-linejoin:miter;stroke-miterlimit:4;stroke-dasharray:none;stroke-opacity:1;marker-end:url(#marker6024)"
       d="m 349.51278,564.45853 -1.01015,59.599"
       id="path6016"
       inkscape:connector-curvature="0" />
  </g>
</svg>
